<svg xmlns="http://www.w3.org/2000/svg" xmlns:xlink="http://www.w3.org/1999/xlink" width="22" height="22"><linearGradient id="a" x2="0" y1="545.798" y2="517.798" gradientTransform="matrix(.57142913 0 0 .57142913 -217.89818 -292.88488)" gradientUnits="userSpaceOnUse"><stop offset="0" stop-color="#2a2c2f"/><stop offset="1" stop-color="#424649"/></linearGradient><linearGradient id="b" x1="6.5" x2="15.5" y1="6.5" y2="15.5" gradientUnits="userSpaceOnUse"><stop offset="0" stop-color="#292c2f"/><stop offset="1" stop-opacity="0"/></linearGradient><linearGradient id="c" x2="0" y1="18" y2="7" gradientTransform="matrix(.64285714 0 0 .64285714 .714286 .714286)" gradientUnits="userSpaceOnUse"><stop offset="0" stop-color="#197cf1"/><stop offset="1" stop-color="#20bcfa"/></linearGradient><linearGradient id="d" x1="11" x2="11" y1="20" y2="2" gradientUnits="userSpaceOnUse"><stop offset="0" stop-color="#788085"/><stop offset="1" stop-color="#9ba1a6"/></linearGradient><path fill="url(#d)" stroke-width=".643" d="m11 2c-4.9859949 0-9 4.0140064-9 9 0 4.985994 4.0140051 9 9 9 4.985995 0 9-4.014006 9-9 0-4.9859936-4.014005-9-9-9z"/><rect width="16" height="16" x="3" y="3" fill="url(#a)" stroke-width=".571" rx="9.333"/><g stroke-width=".643"><path fill="url(#b)" fill-rule="evenodd" d="m10 5v7l8 8h2v-6l-9.031056-9z" opacity=".2"/><path fill="url(#c)" d="m10 5v7h5v-1h-4v-6z"/></g></svg>