<svg xmlns="http://www.w3.org/2000/svg" xmlns:xlink="http://www.w3.org/1999/xlink" width="22" height="22"><linearGradient id="a" x2="0" y1="545.798" y2="517.798" gradientTransform="matrix(.64285714 0 0 .64285714 -246.51021 -330.87014)" gradientUnits="userSpaceOnUse"><stop offset="0" stop-color="#197cf1"/><stop offset="1" stop-color="#20bcfa"/></linearGradient><linearGradient id="b" x2="0" y1="545.798" y2="517.798" gradientTransform="matrix(.2755102 0 0 .2755102 -96.79009 -138.0872)" gradientUnits="userSpaceOnUse"><stop offset="0" stop-color="#7cbaf8"/><stop offset="1" stop-color="#f4fcff"/></linearGradient><linearGradient id="c" x1="9.071" x2="18.071" y1="3.864" y2="12.864" gradientUnits="userSpaceOnUse"><stop offset="0" stop-color="#292c2f"/><stop offset="1" stop-opacity="0"/></linearGradient><g stroke-width=".643"><path fill="url(#a)" d="m20 2v13h-5v5l-5-5h-8v-13z"/><path fill="url(#c)" fill-rule="evenodd" d="m18 4-9 7 6 6v-2h5v-9z" opacity=".2"/><path fill="#280000" d="m18 4 1 1v7l-4 .00001v2l-2-2.00001h-3l-1-1v-7z" opacity=".1"/><path fill="url(#b)" d="m18 4v7l-3 .00001v2l-2-2.00001h-4v-7z"/><path fill="#3c0000" d="m2 14v1h8l5 5v-1l-5-5zm13 0v1h5v-1z" opacity=".2"/></g></svg>