<svg xmlns="http://www.w3.org/2000/svg" width="16" height="16" viewBox="0 0 16 16"><path fill="#2e3436" d="m 7.015625 0 c -1.109375 0 -2 0.890625 -2 2 v 1 h -3.015625 c -1.109375 0 -2 0.890625 -2 2 v 2 h 1.015625 c 1.105469 0 2 0.890625 2 2 s -0.894531 2 -2 2 h -1.015625 v 2.988281 c 0 1.105469 0.890625 2 2 2 h 3.015625 v -0.988281 c 0 -1.109375 0.890625 -2 2 -2 c 1.105469 0 2 0.890625 2 2 v 0.988281 h 2 c 1.105469 0 2 -0.894531 2 -2 v -2.988281 h 1 c 1.105469 0 2 -0.890625 2 -2 s -0.894531 -2 -2 -2 h -1 v -2 c 0 -1.109375 -0.894531 -2 -2 -2 h -2 v -1 c 0 -1.109375 -0.894531 -2 -2 -2 z m 0 0"/></svg>