<svg xmlns="http://www.w3.org/2000/svg" width="16" height="16" viewBox="0 0 16 16"><path fill="#2e3436" d="m 2 1 c -0.554688 0 -1 0.445312 -1 1 v 4 c 0 0.554688 0.445312 1 1 1 h 4 c 0.554688 0 1 -0.445312 1 -1 v -4 c 0 -0.554688 -0.445312 -1 -1 -1 z m 8 0 c -0.554688 0 -1 0.445312 -1 1 v 4 c 0 0.554688 0.445312 1 1 1 h 4 c 0.554688 0 1 -0.445312 1 -1 v -4 c 0 -0.554688 -0.445312 -1 -1 -1 z m -8 8 c -0.554688 0 -1 0.445312 -1 1 v 4 c 0 0.554688 0.445312 1 1 1 h 4 c 0.554688 0 1 -0.445312 1 -1 v -4 c 0 -0.554688 -0.445312 -1 -1 -1 z m 8 0 c -0.554688 0 -1 0.445312 -1 1 v 4 c 0 0.554688 0.445312 1 1 1 h 4 c 0.554688 0 1 -0.445312 1 -1 v -4 c 0 -0.554688 -0.445312 -1 -1 -1 z m 0 0"/></svg>