<svg xmlns="http://www.w3.org/2000/svg" id="svg998" width="16.014" height="16" version="1.1"><metadata id="metadata1004"/><path id="rect1582" fill="#2e3436" stroke-dashoffset="4" stroke-linejoin="round" stroke-width=".817" d="m7.25 13h1.5c0.1385 0 0.25 0.1115 0.25 0.25v1.5c0 0.1385-0.1115 0.25-0.25 0.25h-1.5c-0.1385 0-0.25-0.1115-0.25-0.25v-1.5c0-0.1385 0.1115-0.25 0.25-0.25zm-1-3h3.5c0.1385 0 0.25 0.1115 0.25 0.25v1.5c0 0.1385-0.1115 0.25-0.25 0.25h-3.5c-0.1385 0-0.25-0.1115-0.25-0.25v-1.5c0-0.1385 0.1115-0.25 0.25-0.25zm1-9h1.5c0.1385 0 0.25 0.1115 0.25 0.25v7.5c0 0.1385-0.1115 0.25-0.25 0.25h-1.5c-0.1385 0-0.25-0.1115-0.25-0.25v-7.5c0-0.1385 0.1115-0.25 0.25-0.25zm-3.5 2h-1.5c-0.1385 0-0.25-0.1115-0.25-0.25v-1.5c0-0.1385 0.1115-0.25 0.25-0.25h1.5c0.1385 0 0.25 0.1115 0.25 0.25v1.5c0 0.1385-0.1115 0.25-0.25 0.25zm1 3h-3.5c-0.1385 0-0.25-0.1115-0.25-0.25v-1.5c0-0.1385 0.1115-0.25 0.25-0.25h3.5c0.1385 0 0.25 0.1115 0.25 0.25v1.5c0 0.1385-0.1115 0.25-0.25 0.25zm-1 9h-1.5c-0.1385 0-0.25-0.1115-0.25-0.25v-7.5c0-0.1385 0.1115-0.25 0.25-0.25h1.5c0.1385 0 0.25 0.1115 0.25 0.25v7.5c0 0.1385-0.1115 0.25-0.25 0.25zm10-11h-1.5c-0.1385 0-0.25-0.1115-0.25-0.25v-2.5c0-0.1385 0.1115-0.25 0.25-0.25h1.5c0.1385 0 0.25 0.1115 0.25 0.25v2.5c0 0.1385-0.1115 0.25-0.25 0.25zm1 3h-3.5c-0.1385 0-0.25-0.1115-0.25-0.25v-1.5c0-0.1385 0.1115-0.25 0.25-0.25h3.5c0.1385 0 0.25 0.1115 0.25 0.25v1.5c0 0.1385-0.1115 0.25-0.25 0.25zm-1 8h-1.5c-0.1385 0-0.25-0.1115-0.25-0.25v-6.5c0-0.1385 0.1115-0.25 0.25-0.25h1.5c0.1385 0 0.25 0.1115 0.25 0.25v6.5c0 0.1385-0.1115 0.25-0.25 0.25z" style="paint-order:markers fill stroke"/></svg>