<svg xmlns="http://www.w3.org/2000/svg" id="svg10" width="16" height="16" version="1.1" viewBox="0 0 16 16"><g id="g8" fill="#2e3436"><path id="path2" fill-opacity=".349" stroke-width="1.025" d="m15 9.4974h-14v4.5026h14z"/><path id="path4" d="m3 1c-1.6445 0-3 1.3555-3 3v8c0 1.6445 1.3555 3 3 3h10c1.6445 0 3-1.3555 3-3v-8c0-1.6445-1.3555-3-3-3zm0 2h10c0.57031 0 1 0.42969 1 1v8c0 0.57031-0.42969 1-1 1h-10c-0.57031 0-1-0.42969-1-1v-8c0-0.57031 0.42969-1 1-1z"/><path id="path6" stroke-width="1.08" d="m1 10v-1h14v1z"/></g></svg>